<?xml version="1.0" encoding="UTF-8" standalone="no"?>
<!-- Created with Inkscape (http://www.inkscape.org/) -->

<svg
   xmlns:dc="http://purl.org/dc/elements/1.1/"
   xmlns:cc="http://creativecommons.org/ns#"
   xmlns:rdf="http://www.w3.org/1999/02/22-rdf-syntax-ns#"
   xmlns:svg="http://www.w3.org/2000/svg"
   xmlns="http://www.w3.org/2000/svg"
   xmlns:sodipodi="http://sodipodi.sourceforge.net/DTD/sodipodi-0.dtd"
   xmlns:inkscape="http://www.inkscape.org/namespaces/inkscape"
   id="svg2"
   version="1.1"
   inkscape:version="0.91 r13725"
   width="1500"
   height="1500"
   viewBox="0 0 1500 1500"
   sodipodi:docname="logo.svg"
   inkscape:export-filename="/home/julien/Images/BDE/ceten/logo.png"
   inkscape:export-xdpi="90"
   inkscape:export-ydpi="90">
  <metadata
     id="metadata8">
    <rdf:RDF>
      <cc:Work
         rdf:about="">
        <dc:format>image/svg+xml</dc:format>
        <dc:type
           rdf:resource="http://purl.org/dc/dcmitype/StillImage" />
        <dc:title></dc:title>
      </cc:Work>
    </rdf:RDF>
  </metadata>
  <defs
     id="defs6" />
  <sodipodi:namedview
     pagecolor="#ffffff"
     bordercolor="#666666"
     borderopacity="1"
     objecttolerance="10"
     gridtolerance="10"
     guidetolerance="10"
     inkscape:pageopacity="0"
     inkscape:pageshadow="2"
     inkscape:window-width="1600"
     inkscape:window-height="846"
     id="namedview4"
     showgrid="false"
     inkscape:zoom="0.25818463"
     inkscape:cx="503.1287"
     inkscape:cy="1275.7279"
     inkscape:window-x="0"
     inkscape:window-y="0"
     inkscape:window-maximized="1"
     inkscape:current-layer="svg2" />
  <path
     style="fill:#820b5f;fill-opacity:1"
     d="m 693.73918,1494.3285 c -25.67128,-5.456 -41.81622,-15.1425 -50.18687,-30.1107 -15.25172,-27.2726 -2.65182,-63.6167 31.67611,-91.3691 4.66908,-3.7747 9.00148,-6.8631 9.62756,-6.8631 0.62607,0 1.74277,-0.7283 2.48156,-1.6185 1.78795,-2.1544 26.59209,-14.1788 30.96124,-15.0093 1.89222,-0.3596 4.3404,-1.1193 5.4404,-1.6881 2.0443,-1.0572 2.94685,-1.2727 17.23995,-4.1174 25.45437,-5.066 55.37008,-0.066 71.96291,12.0271 10.40443,7.583 19.0802,20.7322 21.37497,32.3963 3.22422,16.3884 -3.55589,38.6837 -16.57675,54.5099 -8.62037,10.4776 -25.03301,25.0781 -33.61537,29.9037 -22.35082,12.5673 -36.26805,17.6607 -56.38571,20.636 -11.76258,1.7397 -28.86261,2.3951 -34,1.3032 z m 17.5,-189.3965 c -14.57921,-1.5201 -33.64239,-5.8266 -46.91805,-10.599 -56.64091,-20.3617 -99.15666,-65.5726 -115.05388,-122.3474 -0.69301,-2.475 -1.612,-5.625 -2.0422,-7 -0.4302,-1.375 -1.32062,-5.875 -1.97872,-10 -0.6581,-4.125 -1.63129,-9.8406 -2.16264,-12.7013 -0.53135,-2.8607 -0.95817,-14.7857 -0.94848,-26.5 0.0181,-21.9259 1.49342,-35.1805 5.6583,-50.8362 0.94557,-3.5544 2.06673,-8.0375 2.49145,-9.9625 0.76148,-3.4513 4.24083,-13.6039 5.99737,-17.5 0.49593,-1.1 1.84966,-4.475 3.00828,-7.5 2.93502,-7.6629 10.69899,-22.9879 16.46521,-32.50002 17.27773,-28.5018 40.84091,-54.19865 67.98523,-74.14151 21.17832,-15.55965 47.17349,-28.93709 69.99813,-36.02191 19.62113,-6.09045 28.12506,-7.68653 59.5,-11.16739 8.34253,-0.92555 33.88122,0.3906 45.5,2.34487 7.76647,1.30631 14.68189,2.89156 28,6.41856 6.04652,1.60129 20.2461,7.53104 29.5,12.31922 74.62882,38.6147 112.06987,118.72538 96.39356,206.24818 -2.12572,11.8682 -9.49002,37.8392 -12.25644,43.2238 -0.50191,0.9769 -2.01831,4.2512 -3.36977,7.2762 -5.42245,12.1372 -7.30092,15.8878 -12.51641,24.9909 -11.98128,20.9121 -26.29812,39.1293 -44.0173,56.0091 -16.08979,15.3276 -19.98515,18.5193 -35.03464,28.7063 -12.71634,8.6076 -41.97,24.2937 -45.30639,24.2937 -0.82093,0 -1.92011,0.3871 -2.44261,0.8603 -0.5225,0.4732 -3.425,1.6525 -6.45,2.6208 -3.025,0.9682 -6.27322,2.151 -7.21826,2.6283 -0.94504,0.4773 -3.64504,1.3221 -6,1.8773 -2.35496,0.5551 -7.55138,1.8905 -11.54762,2.9676 -21.30277,5.7415 -53.24136,8.2853 -75.23412,5.9921 z m 383.75222,-68.0722 c -18.6958,-1.9631 -38.3141,-13.0791 -51.5275,-29.1961 -6.7961,-8.2895 -8.8709,-11.5651 -14.048,-22.1781 -9.0535,-18.5593 -13.6331,-37.6238 -15.2865,-63.6354 -1.0266,-16.152 -0.9578,-20.6918 0.5298,-34.9634 1.68,-16.1161 2.2236,-19.3522 6.6182,-39.4012 2.1223,-9.6821 8.4855,-30.9658 9.866,-33 0.3733,-0.55 1.2523,-2.8 1.9533,-5 3.3345,-10.46362 15.0833,-34.78902 23.9079,-49.50002 7.0853,-11.81155 16.9536,-25.72465 25.0693,-35.34461 8.3134,-9.85436 22.8015,-24.51488 28.1653,-28.50052 1.925,-1.43041 4.542,-3.59355 5.8156,-4.807 2.3669,-2.2552 18.475,-13.41403 21.1844,-14.6754 0.825,-0.38409 3.525,-1.84571 6,-3.24805 4.0895,-2.31715 12.8601,-6.05074 22,-9.36529 12.7754,-4.63297 30.7498,-6.24307 45.7642,-4.09944 10.8109,1.54348 25.0433,6.94378 31.1399,11.81562 0.8777,0.70142 4.3155,3.45302 7.6395,6.11466 17.4365,13.9622 29.7953,37.80702 35.975,69.40911 3.2075,16.40312 3.9834,32.55422 2.5664,53.42504 -1.4791,21.7867 -3.8527,35.8679 -9.1489,54.2759 -6.5213,22.6664 -7.7895,26.4591 -11.87,35.5 -0.993,2.2 -3.0767,7.1245 -4.6305,10.9434 -1.5537,3.8188 -4.7817,10.5688 -7.1732,15 -2.3914,4.4311 -5.0182,9.4066 -5.8371,11.0566 -0.819,1.65 -2.3697,4.35 -3.4461,6 -1.0765,1.65 -2.2767,3.675 -2.6671,4.5 -2.0931,4.422 -16.7275,24.8749 -24.3278,34 -8.3073,9.9741 -25.2683,26.9134 -33.6235,33.5809 -4.7207,3.767 -14.17,10.4191 -14.8004,10.4191 -0.2531,0 -2.473,1.3585 -4.9332,3.0188 -2.4601,1.6604 -5.9702,3.6921 -7.8001,4.5149 -1.8299,0.8229 -4.0021,1.8899 -4.8271,2.3711 -4.3758,2.5527 -14.0935,5.9087 -26.5755,9.1781 -8.1696,2.1398 -21.2881,2.8818 -31.6723,1.7913 z m 187.4228,-71.3804 c -2.0076,-1.6893 -3.3645,-4.1153 -4.1627,-7.4424 -1.4472,-6.0328 -1.5793,-25.8934 -0.213,-32.0514 0.5491,-2.475 1.7415,-8.2403 2.6498,-12.8117 2.1918,-11.0316 12.5858,-40.1664 17.6588,-49.4983 0.5412,-0.9954 2.6066,-4.8204 4.59,-8.5 4.8535,-9.0045 7.7708,-13.651 12.6762,-20.19 4.4989,-5.9972 15.0043,-17 16.2314,-17 0.4211,0 1.6946,-0.8405 2.83,-1.8677 1.1355,-1.0272 3.7512,-2.1238 5.8128,-2.4369 5.2998,-0.8047 9.2165,2.6559 11.3632,10.04 3.0255,10.4073 0.6111,35.947 -5.1299,54.2646 -1.4652,4.675 -2.8855,9.4 -3.1563,10.5 -0.2707,1.1 -0.8733,2.9 -1.3391,4 -0.4658,1.1 -1.385,3.8 -2.0428,6 -1.1867,3.9691 -5.2523,13.6211 -6.9502,16.5 -0.4865,0.825 -2.9297,5.6329 -5.4292,10.6842 -2.4995,5.0513 -6.799,12.1627 -9.5543,15.803 -2.7553,3.6403 -5.0097,6.9807 -5.0097,7.4231 0,0.4425 -3.297,4.1553 -7.3266,8.2508 -10.8571,11.0347 -17.4914,13.3873 -23.4984,8.3327 z M 210.73918,856.30348 c -45.35261,-6.75373 -84.79035,-42.46754 -95.87049,-86.8179 -0.96186,-3.85 -2.26162,-9.02377 -2.88836,-11.49726 -1.58046,-6.23743 -1.46186,-36.11666 0.17069,-43.00274 5.71675,-24.11323 13.32083,-39.95361 27.14557,-56.54805 20.15724,-24.19561 48.26002,-38.98084 78.74463,-41.42852 28.52426,-2.29028 51.31121,3.7129 75.99893,20.02176 7.9106,5.2258 20.54437,16.9125 26.39224,24.41382 10.72217,13.75376 18.83821,31.95739 23.80235,53.38675 1.84967,7.98474 1.54713,36.93971 -0.47704,45.65424 -4.23171,18.21858 -11.40084,34.508 -21.33282,48.47169 -10.57361,14.86575 -29.67635,30.52741 -45.24041,37.09101 -4.09491,1.72688 -8.79529,3.72368 -10.44529,4.43732 -3.01695,1.30486 -8.16606,2.77138 -16.5,4.69937 -4.64389,1.07432 -34.18028,1.9107 -39.5,1.11851 z m 383.5,-5.87032 c -6.325,-0.70316 -13.975,-1.73984 -17,-2.30374 -3.025,-0.5639 -7.075,-1.3182 -9,-1.67621 -10.22935,-1.90247 -34.04288,-9.74279 -46,-15.14496 -7.51771,-3.39646 -21.07425,-10.34445 -24.91842,-12.77117 -2.22301,-1.40333 -4.25868,-2.5515 -4.52371,-2.5515 -0.26503,0 -4.4161,-2.75249 -9.2246,-6.11665 -41.16692,-28.8015 -73.32998,-69.07865 -89.71375,-112.34668 -6.28241,-16.59127 -7.6221,-20.89034 -11.07407,-35.53667 -7.58019,-32.16188 -7.75953,-72.35939 -0.46399,-104 2.8283,-12.26626 7.49475,-27.73421 10.40813,-34.5 0.71049,-1.65 2.74874,-6.375 4.52943,-10.5 1.78069,-4.125 4.60338,-9.975 6.27264,-13 1.66927,-3.025 3.90293,-7.075 4.96368,-9 8.34873,-15.15086 26.10067,-37.53941 40.32194,-50.85359 9.38873,-8.78988 27.58076,-22.91775 35.76337,-27.77372 2.66236,-1.57998 6.26236,-3.72568 8,-4.76821 37.19253,-22.31453 92.53622,-34.34961 136.15935,-29.60932 42.85296,4.6566 78.19962,17.47274 114,41.3346 55.5251,37.00887 94.68704,99.92204 104.68196,168.17024 1.77331,12.1087 1.75085,53.12236 -0.0356,65 -6.16444,40.98582 -20.96658,76.52098 -45.58672,109.439 -7.86349,10.51378 -26.35743,29.57082 -37.06511,38.19367 -47.9406,38.60636 -110.29366,57.00747 -170.49453,50.31491 z m 668.00002,-20.04949 c -8.5762,-1.53738 -17.5758,-4.57867 -22,-7.43458 -0.825,-0.53256 -2.625,-1.44853 -4,-2.03549 -12.0951,-5.1632 -37.4731,-30.5895 -47.811,-47.90216 -6.2419,-10.4531 -10.1017,-17.43064 -13.0141,-23.52586 -4.9729,-10.40771 -7.1749,-15.31817 -7.1749,-16 0,-0.33535 -0.9034,-2.59286 -2.0076,-5.01669 -1.1042,-2.42383 -3.1756,-8.13665 -4.6031,-12.69514 -1.4275,-4.55849 -3.4227,-10.76317 -4.4337,-13.78817 -1.0111,-3.025 -2.2828,-7.75 -2.8259,-10.5 -0.5432,-2.75 -1.6517,-7.925 -2.4633,-11.5 -4.6349,-20.41568 -7.6664,-47.03222 -7.6664,-67.31157 0,-13.70756 2.7141,-44.76222 4.4737,-51.18843 0.7531,-2.75 1.6662,-7.25 2.0292,-10 1.8835,-14.26777 11.8466,-41.01876 21.2846,-57.14933 8.2949,-14.17676 21.3933,-27.88834 32.7125,-34.24383 14.1109,-7.92295 30.7246,-10.15413 45.6405,-6.1294 4.5012,1.21456 8.8985,2.55316 9.7718,2.97467 9.6404,4.65331 13.8138,7.04974 17.0631,9.79789 2.1134,1.7875 4.2304,3.25 4.7044,3.25 1.1235,0 16.8203,16.06067 21.9903,22.5 20.7252,25.81365 39.4255,67.69628 47.3282,106 0.6809,3.3 1.8523,8.7 2.6032,12 2.8886,12.69465 5.4767,41.68775 5.455,61.11082 -0.056,50.4091 -10.3155,92.66571 -29.8358,122.88918 -4.9471,7.65961 -20.9474,24.22098 -25.7207,26.62264 -1.65,0.83019 -4.0125,2.04222 -5.25,2.6934 -5.5102,2.89952 -6.7528,3.43094 -11.0366,4.72017 -4.7682,1.43503 -20.9349,2.62886 -25.2134,1.86188 z M 999.23918,552.00051 c -10.1845,-1.05039 -35.46464,-7.0555 -42.5,-10.09555 -1.1,-0.47532 -4.475,-1.80979 -7.5,-2.96549 -6.48266,-2.47669 -27.81719,-13.10148 -32.05115,-15.96177 -1.62187,-1.09567 -4.18635,-2.81714 -5.69885,-3.8255 -20.4637,-13.6428 -32.89315,-23.90448 -47.84064,-39.49692 -16.13109,-16.82712 -32.23213,-38.22949 -42.75018,-56.82587 -8.50733,-15.04134 -20.65918,-43.05305 -20.65918,-47.6223 0,-1.00184 -0.37175,-2.24903 -0.82612,-2.77153 -1.50017,-1.72512 -5.40588,-16.65583 -8.35778,-31.95 -2.00901,-10.40891 -2.31051,-14.98329 -2.27396,-34.5 0.036,-19.24377 0.36544,-24.08261 2.27603,-33.4356 2.38069,-11.65431 4.73791,-20.79933 6.20285,-24.0644 0.49354,-1.1 2.05045,-4.925 3.4598,-8.5 4.88731,-12.39725 15.51934,-28.72722 25.94372,-39.84753 11.65578,-12.43392 34.4037,-26.23388 52.18375,-31.65713 14.75777,-4.5014 33.60762,-6.35765 51.89171,-5.11008 16.0313,1.09385 41.1336,6.9324 54,12.55987 1.1,0.48111 4.025,1.74578 6.5,2.81036 6.57873,2.82975 9.31442,4.11431 11.00002,5.1651 0.825,0.51431 2.175,1.17809 3,1.47507 0.825,0.29697 3.75,1.89851 6.5,3.55897 2.75,1.66046 5.675,3.32411 6.5,3.69701 2.6804,1.21155 16.3495,10.5204 22.3831,15.2433 3.2357,2.53278 7.7357,6.00151 10,7.70829 8.1475,6.14141 29.4176,27.82403 38.1169,38.85617 1.65,2.09248 4.1426,5.20763 5.5392,6.92256 2.8259,3.47005 3.6614,4.66256 11.2932,16.11804 6.8849,10.33446 13.2524,21.61751 18.9057,33.5 7.1514,15.03147 8.3739,17.96971 11.2341,27 1.4807,4.675 3.5127,10.975 4.5156,14 1.8703,5.64177 3.4705,12.97724 6.6534,30.5 2.1521,11.84813 2.4451,46.14882 0.4783,56 -0.6589,3.3 -1.6354,8.35561 -2.1702,11.23469 -2.5755,13.86669 -11.8585,36.35107 -19.8923,48.18144 -14.4313,21.25098 -35.2818,37.85932 -58.5018,46.59932 -19.033,7.16399 -43.9684,9.93214 -67.55522,7.49948 z m 340.41102,-51.42409 c -6.1024,-4.10957 -12.333,-10.88558 -18.5593,-20.18386 -4.6229,-6.90383 -10.0411,-16.10827 -11.7365,-19.93798 -0.4946,-1.11705 -2.1037,-4.49205 -3.5759,-7.5 -2.9537,-6.0347 -8.3395,-20.37357 -12.0079,-31.969 -8.3029,-26.24488 -10.4792,-56.55561 -4.7634,-66.34245 4.7517,-8.13597 11.4226,-7.21576 22.3381,3.08137 10.6576,10.05383 25.9958,34.76103 30.8916,49.76108 0.7181,2.2 1.8694,4.9 2.5586,6 1.5912,2.53984 10.2793,30.36812 11.5515,37 0.5275,2.75 1.5471,10.4 2.2656,17 3.2976,30.28787 -4.0597,43.1269 -18.9624,33.09084 z M 770.23918,155.52418 c -0.825,-0.19711 -4.83343,-0.90247 -8.90763,-1.56747 -12.88832,-2.10368 -24.77152,-6.30662 -41.59237,-14.71072 -27.96348,-13.97122 -50.82534,-38.36774 -58.68828,-62.627902 -1.94032,-5.98659 -2.29812,-9.14078 -2.22705,-19.63251 0.0835,-12.326623 0.13546,-12.600805 3.74579,-19.767767 7.66904,-15.22403 21.51115,-25.256263 41.16954,-29.8381 13.97894,-3.258113 39.55265,-2.757505 51.63705,1.010799 2.39962,0.74828 6.38795,1.897257 8.86295,2.553283 2.475,0.656026 5.77397,1.833802 7.33104,2.61728 1.55707,0.783478 3.5208,1.424505 4.36385,1.424505 0.84304,0 3.16907,0.830241 5.16896,1.844981 1.99988,1.014739 6.31663,3.152239 9.59277,4.75 11.63845,5.67602 27.1268,17.181637 37.12647,27.579621 6.24566,6.494438 12.41691,14.091648 12.41691,15.286028 0,0.37005 1.09463,2.10795 2.43252,3.86201 7.2106,9.45358 11.88542,30.47174 9.70885,43.651352 -3.23301,19.57665 -19.27794,35.0393 -42.64137,41.0939 -5.83165,1.51126 -12.06566,2.17563 -23,2.45114 -8.25,0.20787 -15.675,0.21668 -16.5,0.0196 z"
     id="path4138"
     inkscape:connector-curvature="0"
     sodipodi:nodetypes="sssssccssssssssssssssssssssssssssssssssscscsscsssssccssscsssscssssccscccscscccscsccsccssccsscsccssssssssssssssssssssssssssssssssssssssssssssssssssssccssccsssccsscssssssssssssssssssssssssssscssssssssscsccsssssccsssccccscsssssssssssssssssscc" />
</svg>
